HIERARCHY
ROOT Hips
{
	OFFSET 0.000000 0.000000 0.000000
	CHANNELS 6 Xposition Yposition Zposition Zrotation Yrotation Xrotation 
	JOINT LeftUpLeg_virtual
	{
		OFFSET 0.000000 0.000000 0.000000
		CHANNELS 3 Zrotation Yrotation Xrotation
		JOINT LeftUpLeg
		{
			OFFSET 10.205400 -3.823500 0.155100
			CHANNELS 3 Zrotation Yrotation Xrotation
			JOINT LeftLeg
			{
				OFFSET 0.708757 -12.982077 0.567790
				CHANNELS 3 Zrotation Yrotation Xrotation
				JOINT LeftFoot
				{
					OFFSET -0.708756 -10.717838 -2.184338
					CHANNELS 3 Zrotation Yrotation Xrotation
					JOINT LeftToeBase
					{
						OFFSET 0.108149 -7.191104 7.560241
						CHANNELS 3 Zrotation Yrotation Xrotation
						End Site
						{
							OFFSET 0.000000 0.000000 0.000000
						}
					}
				}
			}
		}
	}
	JOINT RightUpLeg_virtual
	{
		OFFSET 0.000000 0.000000 0.000000
		CHANNELS 3 Zrotation Yrotation Xrotation
		JOINT RightUpLeg
		{
			OFFSET -10.205400 -3.823500 0.005500
			CHANNELS 3 Zrotation Yrotation Xrotation
			JOINT RightLeg
			{
				OFFSET -0.708756 -12.982134 0.610632
				CHANNELS 3 Zrotation Yrotation Xrotation
				JOINT RightFoot
				{
					OFFSET 0.708754 -10.717769 -1.945823
					CHANNELS 3 Zrotation Yrotation Xrotation
					JOINT RightToeBase
					{
						OFFSET -0.108140 -7.191069 7.372968
						CHANNELS 3 Zrotation Yrotation Xrotation
						End Site
						{
							OFFSET 0.000000 0.000000 0.000000
						}
					}
				}
			}
		}
	}
	JOINT Spine_virtual
	{
		OFFSET 0.000000 0.000000 0.000000
		CHANNELS 3 Zrotation Yrotation Xrotation
		JOINT Spine
		{
			OFFSET 0.000000 6.876099 0.125700
			CHANNELS 3 Zrotation Yrotation Xrotation
			JOINT Spine1
			{
				OFFSET 0.000000 8.022060 0.146608
				CHANNELS 3 Zrotation Yrotation Xrotation
				JOINT Spine2
				{
					OFFSET 0.000000 9.168068 0.167552
					CHANNELS 3 Zrotation Yrotation Xrotation
					JOINT Neck_virtual
					{
						OFFSET 0.000000 0.000000 0.000000
						CHANNELS 3 Zrotation Yrotation Xrotation
						JOINT Neck
						{
							OFFSET 0.000000 10.314075 0.188496
							CHANNELS 3 Zrotation Yrotation Xrotation
							JOINT Head
							{
								OFFSET 0.000000 7.643700 -2.377400
								CHANNELS 3 Zrotation Yrotation Xrotation
								End Site
								{
									OFFSET 0.000000 0.000000 0.000000
								}
							}
						}
					}
					JOINT LeftShoulder_virtual
					{
						OFFSET 0.000000 0.000000 0.000000
						CHANNELS 3 Zrotation Yrotation Xrotation
						JOINT LeftShoulder
						{
							OFFSET 4.392200 8.824978 0.174984
							CHANNELS 3 Zrotation Yrotation Xrotation
							JOINT LeftArm
							{
								OFFSET 8.771219 -2.981674 -0.026999
								CHANNELS 3 Zrotation Yrotation Xrotation
								JOINT LeftForeArm
								{
									OFFSET 8.512804 0.000000 -0.000000
									CHANNELS 3 Zrotation Yrotation Xrotation
									JOINT LeftHand
									{
										OFFSET 18.484802 0.000000 -0.000000
										CHANNELS 3 Zrotation Yrotation Xrotation
										End Site
										{
											OFFSET 0.000000 0.000000 0.000000
										}
									}
								}
							}
						}
					}
					JOINT RightShoulder_virtual
					{
						OFFSET 0.000000 0.000000 0.000000
						CHANNELS 3 Zrotation Yrotation Xrotation
						JOINT RightShoulder
						{
							OFFSET -4.392200 8.824993 0.141379
							CHANNELS 3 Zrotation Yrotation Xrotation
							JOINT RightArm
							{
								OFFSET -8.771282 -2.981682 -0.094208
								CHANNELS 3 Zrotation Yrotation Xrotation
								JOINT RightForeArm
								{
									OFFSET -8.494598 0.000000 0.000000
									CHANNELS 3 Zrotation Yrotation Xrotation
									JOINT RightHand
									{
										OFFSET -18.483803 0.000000 0.000001
										CHANNELS 3 Zrotation Yrotation Xrotation
										End Site
										{
											OFFSET 0.000000 0.000000 0.000000
										}
									}
								}
							}
						}
					}
				}
			}
		}
	}
}
MOTION
Frames: 4
Frame Time: 0.033333
5.847128 19.179327 -22.259567 179.686404 12.290241 179.326111 4.716652 4.851699 17.541167 -10.907121 16.596098 -80.645683 20.452653 5.456386 107.691313 -8.645103 -10.993025 -2.874629 0.000000 0.000000 0.000000 7.437694 4.283588 19.805879 10.396990 -25.115002 -57.509503 -3.694958 -3.411053 120.395143 -7.981960 23.976667 -16.168294 0.000000 0.000000 0.000000 8.232085 3.338724 32.606609 0.749884 -4.485449 19.062095 2.825381 -4.685746 5.291019 0.081710 -0.056669 -0.050539 3.785436 -4.437056 5.580080 -0.891778 6.667774 -9.151011 0.000000 0.000000 0.000000 4.709579 -3.360482 1.530030 -8.409629 -10.285034 -3.307898 -42.371717 -24.088151 11.547497 -1.643432 -76.281861 -3.240522 0.000000 0.000000 0.000000 1.101432 -2.289238 0.880983 12.040498 24.401170 -7.142616 31.722947 18.893606 -26.172107 -50.442976 81.530746 -54.712585 0.000000 0.000000 0.000000 
5.876821 19.200190 -22.158689 179.746373 12.387526 179.371628 4.797405 4.938694 17.625981 -11.018176 16.746367 -80.899978 20.634958 5.572738 107.334053 -8.272176 -11.357052 -2.731387 0.000000 0.000000 0.000000 7.413095 4.384347 19.802283 10.410846 -25.601460 -57.598330 -3.920539 -4.014171 120.295778 -8.531999 23.879637 -16.069226 0.000000 0.000000 0.000000 8.241902 3.525216 32.574067 0.900921 -4.494253 19.099553 2.910831 -4.670183 5.319668 0.061782 -0.100532 -0.054451 3.855511 -4.419745 5.689713 -1.331163 6.675505 -9.457779 0.000000 0.000000 0.000000 4.781144 -3.237214 1.717842 -8.805148 -10.420589 -3.398075 -41.875292 -23.977905 11.401430 -2.049726 -76.027997 -2.441641 0.000000 0.000000 0.000000 1.288388 -2.191799 1.047120 11.671747 24.990793 -6.830273 27.738954 15.200414 -27.853503 -30.093810 77.277279 -33.352442 0.000000 0.000000 0.000000 
5.933138 19.230007 -22.106255 179.624864 12.443086 179.324240 4.726814 4.900911 17.798320 -10.851174 16.680633 -80.923562 20.837159 5.598249 107.045429 -8.322617 -11.663347 -2.621288 0.000000 0.000000 0.000000 7.342497 4.467590 19.935024 8.843055 -26.286360 -57.539166 -2.383120 -2.707623 120.192724 -9.921356 23.226111 -20.177740 0.000000 0.000000 0.000000 8.206837 3.773268 32.666602 1.059271 -4.588996 19.108622 3.063264 -4.649131 5.316669 0.108957 -0.092639 -0.076769 3.946169 -4.356505 5.763633 -1.843895 6.680731 -9.651780 0.000000 0.000000 0.000000 4.934668 -3.348351 1.812587 -9.260040 -10.753056 -3.006419 -41.460788 -23.874597 11.151644 -1.295154 -75.692252 -2.758081 0.000000 0.000000 0.000000 1.406755 -2.262714 1.120640 11.185314 25.391052 -6.541766 24.191111 12.018893 -29.462294 -21.036771 72.296528 -23.322745 0.000000 0.000000 0.000000 
6.004119 19.277859 -22.091501 179.611722 12.400183 179.323461 4.731980 4.676255 17.959089 -10.446593 16.538560 -80.793925 21.062953 5.555354 106.830436 -9.003668 -11.865135 -2.465267 0.000000 0.000000 0.000000 7.359118 4.485912 19.834564 8.037270 -26.930509 -57.560361 -1.676061 -2.266090 119.264447 -10.096188 22.675726 -21.123219 0.000000 0.000000 0.000000 8.043332 3.563040 32.675710 1.206592 -4.573095 19.106699 3.110252 -4.568173 5.373512 0.061629 -0.071978 -0.041819 4.076881 -4.375435 5.743094 -2.067737 6.543591 -9.991350 0.000000 0.000000 0.000000 5.062263 -3.252679 1.833766 -9.616664 -10.961221 -2.986017 -41.197266 -23.670210 11.038453 -1.545112 -75.310970 -2.063012 0.000000 0.000000 0.000000 1.612943 -2.280418 1.230173 10.644018 25.799974 -6.264165 21.276205 9.457148 -30.851592 -16.643822 67.716872 -18.070842 0.000000 0.000000 0.000000 
